<svg width="387.62" height="69.04" xmlns="http://www.w3.org/2000/svg" data-name="Layer 1">
    <defs>
        <style>
            .cls-1{fill:#fff}
        </style>
    </defs>
    <g class="layer">
        <path class="cls-1" d="M333.48 64.52V12.09h-9.86V4.82h28.72v7.27h-9.86v52.43h-9z" id="svg_1" style="fill:#000000"/>
        <path class="cls-1" d="M355.51 4.82h9.57l3.32 26.86c1 7.77 1.76 15.83 2.84 24.58h.79c1.08-9.25 1.87-16.66 2.85-24.58l3.24-26.86h9.5l-9.72 59.7h-12.38l-10.01-59.7z" id="svg_2" style="fill:#000000"/>
        <path class="cls-1" d="M117.76 64.52V45.28L106.67 4.82h9l3.88 18.22c.94 4.25 1.88 8.78 2.52 12.38h.44c.64-3.6 1.58-8.13 2.52-12.31l4-18.29h9l-11.2 40.46v19.24h-9.07z" id="svg_3" style="fill:#000000"/>
        <path class="cls-1" d="M162.82 39.81v5.83c0 13.9-4.53 19.58-13.24 19.58-9.29 0-13.25-5.83-13.25-19.58v-5.83c0-14.29 4.43-19.58 13.43-19.58 8.75 0 13.06 5.54 13.06 19.58zm-8.81-4c0-7.7-1.55-9.57-4.43-9.57s-4.43 1.87-4.43 9.57v13.71c0 7.92 1.69 9.72 4.43 9.72s4.43-1.8 4.43-9.72V35.81z" id="svg_4" style="fill:#000000"/>
        <path class="cls-1" d="M168.95 53.35V21.09h8.49v31.82c0 4.61 1.08 5.91 3.53 5.91 1.73 0 3.53-.94 4.82-3.24V21.09h8.5v43.43h-6.41l-1.29-6.11h-.22c-2.23 4.75-5.69 6.47-9.72 6.47-4.89-.02-7.7-3.36-7.7-11.53z" id="svg_5" style="fill:#000000"/>
        <path class="cls-1" d="M203.51 64.52V12.09h-9.87V4.82h28.73v7.27h-9.86v52.43h-9z" id="svg_6" style="fill:#000000"/>
        <path class="cls-1" d="M221 53.35V21.09h8.5v31.82c0 4.61 1.08 5.91 3.53 5.91 1.72 0 3.52-.94 4.82-3.24V21.09h8.5v43.43h-6.41l-1.3-6.11h-.21c-2.24 4.75-5.69 6.47-9.72 6.47-4.9-.02-7.71-3.36-7.71-11.53z" id="svg_7" style="fill:#000000"/>
        <path class="cls-1" d="M280.76 39.38V46c0 13-3 18.86-9.36 18.86a9.4 9.4 0 0 1-8.64-4.89h-.43l-1.04 4.55h-7.35v-62h8.5V14.9c0 3.31-.07 8.28-.15 12h.36c2.52-5 5.76-6.55 9.36-6.55 6.27.02 8.75 4.7 8.75 19.03zm-9 .72c0-10.3-1.23-13.54-4.18-13.54-2.23 0-4.46 1.8-5.11 4.9v24.77a5.11 5.11 0 0 0 4.53 2.59c3.17 0 4.76-3 4.76-13.39V40.1z" id="svg_8" style="fill:#000000"/>
        <path class="cls-1" d="M311.32 45.64h-16.48v4.32c0 6.77.86 9.29 4.17 9.29s4.39-2.27 4.47-7.45l7.56.43c.64 8.71-4.54 12.92-12.24 12.92-9.87 0-12.67-6.62-12.67-17.78v-8.13c0-12.82 3.67-18.87 12.95-18.87s12.24 5.15 12.24 18.43v6.84zm-16.48-9.86v4.9h8.13v-4.9c0-7.49-.93-9.36-4.1-9.36s-4.03 1.94-4.03 9.36z" id="svg_9" style="fill:#000000"/>
        <path d="M10.76 66.95a12.7 12.7 0 0 1-8.78-8.71c-2-7.7-2-23.76-2-23.76s0-16 2-23.68a12.57 12.57 0 0 1 8.78-8.71C18.39 0 49.2 0 49.2 0s30.89 0 38.52 2.09a12.24 12.24 0 0 1 8.71 8.71c2.13 7.63 2.13 23.72 2.13 23.72s0 16.06-2.09 23.76a12.36 12.36 0 0 1-8.71 8.71c-7.63 2.09-38.52 2.09-38.52 2.09s-30.81-.04-38.48-2.13zm28.69-17.64 25.56-14.79-25.56-14.79v29.58z" id="svg_10" style="fill:red"/>
        <path class="cls-1" id="svg_11" d="m39.45 49.31 25.56-14.83-25.56-14.75v29.58z"/>
    </g>
</svg>