<?xml version="1.0" encoding="UTF-8" standalone="no"?>
<!DOCTYPE svg PUBLIC "-//W3C//DTD SVG 1.1//EN" "http://www.w3.org/Graphics/SVG/1.1/DTD/svg11.dtd">
<svg xmlns="http://www.w3.org/2000/svg" version="1.1" viewBox="0.00 0.00 2264.00 926.00">
<path fill="#000000" d="
  M 1307.16 8.34
  A 1.92 1.91 -81.2 0 1 1309.00 6.99
  C 1333.63 7.03 1358.44 7.29 1383.17 6.65
  Q 1403.06 6.13 1422.96 6.26
  C 1425.68 6.28 1427.23 7.23 1428.75 9.28
  Q 1429.00 9.62 1429.00 10.05
  L 1429.00 119.78
  Q 1429.00 120.35 1428.62 120.78
  L 1427.08 122.51
  Q 1426.75 122.88 1426.26 122.87
  Q 1369.12 122.22 1312.01 123.77
  Q 1309.96 123.82 1307.32 121.87
  A 0.96 0.94 -71.7 0 1 1306.93 121.08
  Q 1307.30 67.15 1306.44 13.26
  Q 1306.40 10.79 1307.16 8.34
  Z"
/>
<rect fill="#000000" x="1472.25" y="6.99" width="119.24" height="687.50" rx="2.83"/>
<path fill="#000000" d="
  M 1637.42 7.00
  L 1755.08 7.00
  A 1.67 1.67 0.0 0 1 1756.75 8.67
  L 1756.75 121.08
  A 1.67 1.67 0.0 0 1 1755.08 122.75
  L 1637.42 122.75
  A 1.67 1.67 0.0 0 1 1635.75 121.08
  L 1635.75 8.67
  A 1.67 1.67 0.0 0 1 1637.42 7.00
  Z"
/>
<path fill="#000000" d="
  M 617.51 241.67
  A 1.38 1.38 0.0 0 0 619.95 242.43
  Q 626.52 234.57 632.07 227.80
  C 669.44 182.21 733.41 168.19 789.32 176.65
  C 840.01 184.33 883.70 207.15 914.95 247.80
  C 936.18 275.42 950.87 308.94 958.55 342.98
  Q 971.72 401.29 968.66 463.25
  C 965.64 524.64 947.95 587.58 907.78 634.77
  C 907.22 635.43 905.62 636.65 904.92 637.79
  Q 904.35 638.73 903.95 639.15
  C 876.12 668.39 842.96 687.83 803.19 696.66
  Q 799.43 697.49 796.83 697.84
  C 794.43 698.17 791.57 699.28 788.62 698.96
  Q 788.12 698.91 787.69 699.17
  C 785.66 700.38 783.34 699.34 781.19 699.94
  C 775.38 701.57 769.86 699.88 765.83 700.96
  C 762.40 701.87 759.00 701.52 755.51 701.30
  Q 750.97 701.01 747.99 700.95
  Q 724.73 700.45 706.31 695.17
  C 669.65 684.64 646.52 661.34 624.67 631.43
  C 623.22 629.44 622.00 627.31 619.95 625.68
  A 1.44 1.44 0.0 0 0 617.61 626.83
  Q 618.22 663.45 617.13 700.32
  C 615.80 745.16 616.71 790.33 616.77 834.99
  A 1.76 1.76 0.0 0 1 615.01 836.75
  L 491.34 836.75
  A 3.59 3.59 0.0 0 1 487.75 833.16
  Q 487.75 627.41 487.75 420.10
  C 487.75 416.85 487.02 413.27 487.02 409.75
  Q 487.00 307.56 487.00 206.48
  A 3.23 3.23 0.0 0 1 490.23 203.25
  L 612.06 203.25
  A 2.25 2.25 0.0 0 1 614.30 205.30
  L 617.51 241.67
  Z
  M 675.94 297.44
  C 663.72 304.05 652.97 312.86 644.89 323.57
  C 638.19 332.45 632.99 343.06 629.27 353.51
  Q 622.56 372.40 619.73 389.00
  C 615.56 413.50 615.76 434.08 616.22 459.05
  C 616.82 492.40 625.23 525.59 645.61 552.26
  C 650.47 558.61 656.18 564.06 662.41 569.09
  C 697.95 597.74 757.40 598.46 792.28 568.76
  C 838.98 529.00 840.45 458.96 836.49 402.94
  C 834.07 368.67 820.89 334.88 796.81 310.38
  C 765.23 278.24 714.10 276.79 675.94 297.44
  Z"
/>
<path fill="#000000" d="
  M 370.36 211.49
  C 409.94 228.55 438.67 258.12 443.77 302.43
  Q 444.50 308.81 444.50 321.62
  Q 444.50 380.73 444.50 393.14
  A 413.73 28.57 -89.3 0 0 444.79 449.92
  C 445.39 508.02 445.00 566.69 445.73 625.25
  C 446.02 647.62 451.39 667.24 459.41 687.91
  Q 459.60 688.39 459.47 688.90
  Q 459.29 689.61 460.03 690.05
  A 1.57 1.41 -27.0 0 1 459.00 692.73
  L 435.77 692.76
  Q 435.36 692.76 435.08 693.05
  L 434.81 693.31
  A 0.68 0.67 -67.2 0 1 434.33 693.51
  Q 388.67 693.48 343.00 693.51
  Q 339.19 693.51 338.53 690.58
  C 337.88 687.70 336.73 684.67 336.27 682.24
  C 333.02 665.20 331.23 653.68 325.40 640.41
  A 1.13 1.13 0.0 0 0 323.57 640.06
  C 316.83 646.74 311.17 654.50 304.22 661.18
  Q 303.62 661.77 301.61 663.01
  C 300.35 663.79 299.37 665.12 298.36 665.91
  C 269.06 688.61 230.24 699.91 193.51 703.11
  C 135.98 708.11 75.61 689.37 36.61 645.22
  C 13.05 618.55 2.71 584.15 2.86 549.50
  C 2.98 522.45 8.23 495.58 22.07 472.10
  C 56.12 414.38 125.13 400.50 186.00 393.47
  C 210.93 390.60 242.11 384.05 274.11 378.92
  C 284.53 377.25 302.42 375.76 309.74 367.43
  Q 310.05 367.08 310.50 366.92
  C 312.99 366.02 313.71 363.81 314.96 362.33
  Q 321.12 355.10 322.95 346.42
  C 330.40 311.00 302.04 289.41 271.00 283.47
  Q 235.00 276.58 198.97 283.34
  Q 176.29 287.59 161.92 305.91
  C 158.41 310.39 156.03 314.76 153.30 319.37
  Q 152.16 321.30 150.96 324.24
  C 147.72 332.22 145.12 338.10 143.84 343.89
  C 142.75 348.74 134.73 349.54 130.43 347.46
  Q 130.00 347.25 129.52 347.25
  Q 76.13 347.25 22.75 347.25
  C 20.33 347.25 20.11 345.61 20.30 343.57
  Q 24.32 298.64 44.53 261.06
  C 72.58 208.88 137.76 189.29 193.50 187.49
  C 223.21 186.52 246.28 186.29 273.53 188.07
  C 307.16 190.28 339.39 198.13 370.36 211.49
  Z
  M 324.25 450.16
  C 323.20 448.16 321.55 447.52 319.45 448.22
  Q 312.57 450.53 305.46 452.08
  Q 268.37 460.18 231.47 469.12
  Q 210.59 474.17 190.49 481.68
  C 167.25 490.37 143.06 504.70 132.29 528.40
  C 128.45 536.87 126.45 546.18 127.64 555.07
  C 133.00 594.98 171.93 610.43 207.44 607.65
  C 253.12 604.09 317.69 574.83 323.14 521.81
  Q 323.64 516.87 323.57 504.93
  C 323.56 503.77 324.26 502.97 324.26 501.66
  Q 324.23 485.35 324.26 469.04
  A 0.83 0.81 66.1 0 1 324.46 468.50
  C 325.16 467.71 325.26 467.32 325.26 466.24
  C 325.25 461.96 326.16 453.80 324.25 450.16
  Z"
/>
<path fill="#000000" d="
  M 1951.00 702.72
  C 1880.78 696.28 1812.63 651.19 1800.54 577.24
  C 1795.73 547.85 1798.07 515.39 1809.84 487.92
  C 1828.00 445.59 1864.83 420.85 1907.69 407.32
  C 1944.32 395.77 1983.68 393.39 2017.97 387.35
  Q 2049.17 381.85 2080.53 377.37
  C 2095.71 375.20 2113.64 366.15 2117.57 349.98
  C 2128.98 302.99 2090.11 284.83 2051.76 281.56
  Q 2025.56 279.33 2003.19 282.67
  C 1971.96 287.34 1947.04 307.79 1941.03 339.02
  Q 1940.28 342.88 1939.59 346.03
  A 2.83 2.81 -83.7 0 1 1936.84 348.25
  C 1898.13 348.35 1859.48 346.97 1820.74 347.29
  C 1813.29 347.36 1815.28 341.72 1816.04 337.01
  C 1820.40 309.86 1827.86 283.11 1841.55 259.56
  C 1872.51 206.33 1936.31 188.82 1993.75 187.55
  C 2038.65 186.56 2081.58 187.09 2124.77 196.77
  C 2178.50 208.81 2231.59 240.45 2240.02 300.36
  Q 2240.97 307.09 2240.98 320.30
  Q 2241.02 403.16 2241.00 486.00
  Q 2241.00 495.20 2241.27 505.99
  Q 2242.18 541.99 2242.03 578.00
  C 2241.93 598.58 2242.70 619.16 2242.72 639.75
  C 2242.75 658.33 2248.55 674.69 2256.94 690.99
  Q 2258.23 693.50 2255.41 693.50
  Q 2198.39 693.51 2139.85 693.49
  C 2135.47 693.49 2132.77 693.08 2133.24 687.64
  A 1.01 1.01 0.0 0 0 2132.96 686.85
  Q 2132.05 685.89 2132.35 684.55
  Q 2132.46 684.08 2132.38 683.61
  Q 2129.62 667.10 2125.20 650.95
  Q 2123.67 645.37 2121.24 640.72
  A 1.29 1.29 0.0 0 0 2119.16 640.43
  C 2114.16 645.68 2108.94 651.54 2104.11 656.05
  C 2063.25 694.17 2006.18 707.77 1951.00 702.72
  Z
  M 2088.06 575.56
  Q 2102.51 564.14 2111.39 548.65
  C 2117.86 537.36 2117.89 529.13 2118.52 513.83
  Q 2119.85 481.33 2120.04 448.93
  A 1.02 1.02 0.0 0 0 2118.78 447.93
  C 2086.85 455.44 2055.10 463.11 2023.35 470.52
  Q 2002.76 475.33 1991.50 479.73
  Q 1980.83 483.90 1968.46 489.73
  C 1967.60 490.13 1967.29 490.71 1966.55 491.08
  C 1952.24 498.20 1934.62 510.98 1928.59 526.33
  C 1918.87 551.09 1925.43 580.98 1948.43 596.08
  Q 1962.79 605.51 1978.26 606.98
  C 2015.51 610.51 2058.09 599.25 2088.06 575.56
  Z"
/>
<path fill="#000000" d="
  M 1126.05 260.56
  C 1127.54 261.19 1128.69 260.47 1129.29 258.99
  C 1148.91 210.23 1191.08 190.35 1241.81 191.66
  Q 1249.68 191.86 1257.54 191.72
  C 1260.91 191.66 1262.73 194.74 1262.73 198.01
  Q 1262.77 255.84 1262.74 313.66
  A 0.86 0.79 63.6 0 1 1262.61 314.11
  Q 1261.76 315.39 1262.00 316.72
  A 1.76 1.76 0.0 0 1 1259.23 318.46
  C 1257.97 317.53 1255.10 318.55 1254.23 317.84
  Q 1253.87 317.55 1253.41 317.51
  Q 1238.52 316.03 1227.30 318.58
  C 1198.29 325.17 1171.13 342.81 1154.55 367.74
  C 1136.24 395.26 1123.82 427.82 1121.62 461.19
  Q 1120.78 473.95 1121.75 523.44
  C 1122.85 579.05 1121.40 635.04 1121.52 690.23
  A 3.28 3.28 0.0 0 1 1118.24 693.51
  Q 1079.31 693.48 1039.44 693.53
  Q 1038.72 693.53 1038.01 693.02
  Q 1037.64 692.75 1037.19 692.75
  L 999.50 692.75
  A 3.50 3.50 0.0 0 1 996.00 689.25
  L 996.00 206.50
  A 3.25 3.25 0.0 0 1 999.25 203.25
  L 1115.06 203.25
  Q 1115.61 203.25 1116.01 203.62
  Q 1117.46 204.92 1116.95 206.98
  A 1.21 1.21 0.0 0 0 1117.09 207.92
  C 1118.01 209.46 1117.68 210.93 1117.88 212.27
  Q 1120.82 231.87 1123.53 251.49
  Q 1124.04 255.15 1124.08 256.63
  Q 1124.10 257.15 1124.33 257.62
  L 1125.59 260.12
  A 0.92 0.88 87.7 0 0 1126.05 260.56
  Z"
/>
<path fill="#000000" d="
  M 1662.43 693.80
  Q 1649.66 693.44 1637.25 693.48
  A 1.53 1.53 0.0 0 1 1635.74 691.68
  Q 1635.94 690.57 1635.17 689.79
  Q 1634.75 689.36 1634.75 688.76
  L 1634.75 206.26
  A 3.02 3.01 -0.0 0 1 1637.77 203.25
  C 1663.01 203.25 1688.84 203.62 1714.50 202.98
  Q 1733.47 202.51 1752.44 202.17
  Q 1752.91 202.16 1753.33 202.37
  L 1755.74 203.53
  A 0.60 0.58 15.8 0 1 1756.07 204.10
  C 1755.70 208.88 1756.58 214.02 1756.61 218.08
  C 1756.75 245.53 1756.50 273.00 1757.01 300.43
  Q 1758.05 355.20 1757.72 409.97
  C 1757.66 420.08 1758.44 430.26 1758.46 440.41
  Q 1758.55 493.92 1758.21 547.43
  C 1757.95 588.37 1757.81 629.33 1757.33 670.27
  C 1757.26 676.15 1756.52 684.24 1756.80 691.17
  A 3.00 3.00 0.0 0 1 1753.85 694.29
  Q 1708.64 695.12 1662.43 693.80
  Z"
/>
<path fill="#000000" d="
  M 1308.90 693.92
  Q 1307.10 693.28 1307.86 691.44
  Q 1308.08 690.91 1307.74 690.45
  L 1307.26 689.80
  A 1.40 1.37 -63.4 0 1 1307.00 688.99
  L 1307.00 205.00
  A 1.75 1.75 0.0 0 1 1308.75 203.25
  L 1426.02 203.25
  A 1.99 1.99 0.0 0 1 1428.01 205.24
  Q 1427.97 312.21 1428.02 419.74
  C 1428.03 442.60 1428.96 465.45 1428.97 488.30
  Q 1429.04 589.87 1428.99 691.50
  A 2.03 2.03 0.0 0 1 1426.94 693.53
  Q 1411.85 693.43 1396.49 693.53
  C 1390.89 693.57 1381.14 694.04 1373.75 693.52
  Q 1372.30 693.42 1371.29 694.21
  A 1.36 1.36 0.0 0 1 1370.45 694.50
  Q 1340.63 694.51 1310.82 694.49
  Q 1310.33 694.49 1309.84 694.28
  Q 1309.36 694.08 1308.90 693.92
  Z"
/>
<path fill="#ef2f22" d="
  M 863.55 883.16
  Q 888.58 897.05 909.45 916.68
  A 1.43 1.43 0.0 0 1 908.45 919.15
  L 839.41 917.94
  Q 838.94 917.93 838.54 917.68
  Q 835.31 915.66 834.22 914.77
  C 810.24 895.21 786.10 875.85 762.13 856.27
  Q 761.75 855.97 761.75 855.48
  L 761.75 852.38
  A 0.62 0.62 0.0 0 1 762.37 851.76
  L 872.97 851.73
  Q 873.37 851.73 873.71 851.52
  C 874.97 850.73 876.50 851.07 877.69 850.85
  C 892.21 848.14 895.64 827.96 882.23 822.27
  Q 879.08 820.94 869.21 820.79
  C 832.91 820.24 796.87 820.10 760.58 820.86
  Q 760.04 820.87 760.03 821.40
  Q 759.92 860.12 760.03 898.77
  C 760.04 904.63 759.53 910.01 758.82 915.69
  Q 758.39 919.21 755.17 917.71
  Q 728.48 905.22 701.22 892.60
  C 696.17 890.26 694.44 887.69 694.60 882.25
  Q 695.76 843.75 695.50 792.16
  C 695.47 786.57 697.16 786.47 702.00 786.50
  C 732.00 786.71 762.01 785.58 791.99 785.53
  C 826.10 785.48 860.14 785.27 894.24 786.51
  C 918.67 787.41 946.74 793.75 953.57 821.36
  Q 956.11 831.64 954.53 842.22
  C 950.19 871.14 921.86 877.81 897.56 879.82
  C 886.39 880.74 874.86 880.46 863.80 881.89
  A 0.68 0.68 0.0 0 0 863.55 883.16
  Z"
/>
<path fill="#ef2f22" d="
  M 1568.00 890.87
  A 0.25 0.25 0.0 0 1 1567.84 890.64
  Q 1567.58 874.05 1567.11 857.43
  C 1566.47 834.43 1566.71 811.36 1566.77 788.38
  A 1.90 1.89 0.0 0 1 1568.67 786.49
  Q 1597.55 786.61 1626.34 785.57
  C 1627.99 785.51 1629.31 786.18 1630.65 786.92
  Q 1631.14 787.19 1631.15 787.75
  Q 1631.52 802.31 1631.01 816.83
  C 1629.87 849.38 1630.47 882.10 1630.51 914.36
  A 3.75 3.74 -77.3 0 1 1625.16 917.75
  C 1610.59 910.80 1595.84 903.91 1581.21 896.87
  Q 1574.77 893.76 1568.00 890.87
  Z"
/>
<path fill="#ef2f22" d="
  M 1751.00 834.17
  C 1746.77 829.36 1740.58 820.08 1733.57 820.01
  Q 1729.65 819.98 1726.39 820.01
  A 3.30 3.30 0.0 0 0 1723.12 823.35
  L 1724.22 911.45
  A 3.63 3.63 0.0 0 1 1719.04 914.78
  L 1667.94 890.78
  A 0.76 0.75 -78.0 0 1 1667.50 890.09
  L 1667.50 789.73
  A 3.25 3.25 0.0 0 1 1670.76 786.48
  C 1703.63 786.59 1736.58 785.69 1769.51 785.57
  C 1779.65 785.53 1783.42 790.15 1790.58 798.21
  Q 1824.59 836.49 1858.87 874.53
  C 1862.48 878.54 1867.91 884.98 1872.67 887.31
  Q 1875.62 888.75 1878.88 889.37
  Q 1879.35 889.46 1879.78 889.22
  C 1881.96 887.99 1881.25 886.76 1881.25 884.75
  Q 1881.24 837.02 1881.27 788.53
  Q 1881.27 786.51 1883.29 786.50
  Q 1902.92 786.49 1923.50 786.51
  Q 1928.45 786.52 1935.39 785.56
  C 1938.51 785.13 1940.50 787.60 1940.50 790.75
  Q 1940.49 852.63 1940.50 914.50
  Q 1940.50 915.66 1938.95 917.45
  Q 1938.63 917.81 1938.16 917.89
  C 1936.42 918.17 1935.16 918.99 1933.43 918.99
  Q 1883.50 919.01 1833.57 918.99
  C 1826.98 918.99 1818.87 907.43 1814.82 903.31
  C 1792.87 880.98 1771.71 857.66 1751.00 834.17
  Z"
/>
<path fill="#ef2f22" d="
  M 1282.44 900.06
  Q 1270.61 888.16 1267.94 873.01
  Q 1263.63 848.51 1268.98 827.48
  C 1274.52 805.75 1297.30 792.99 1318.27 789.27
  Q 1333.61 786.54 1349.25 786.57
  Q 1388.26 786.65 1427.26 785.91
  C 1461.57 785.27 1496.03 786.55 1530.05 786.52
  A 3.20 3.20 0.0 0 1 1533.25 789.72
  L 1533.25 818.49
  A 2.20 2.20 0.0 0 1 1530.99 820.69
  C 1471.05 818.98 1411.01 820.86 1351.04 820.77
  A 2.13 2.09 31.0 0 0 1350.08 821.00
  Q 1349.20 821.45 1347.73 821.72
  Q 1340.59 823.04 1336.18 828.31
  C 1328.53 837.49 1330.17 859.09 1332.91 869.82
  C 1335.68 880.66 1348.40 882.41 1357.57 883.15
  Q 1366.16 883.85 1390.94 882.87
  C 1408.41 882.18 1432.17 883.05 1453.07 883.23
  Q 1491.52 883.55 1529.97 883.51
  Q 1530.50 883.51 1530.50 884.04
  L 1530.50 918.30
  Q 1530.50 918.87 1529.93 918.88
  Q 1455.82 920.28 1381.75 919.82
  Q 1357.83 919.67 1326.50 917.26
  C 1309.46 915.95 1294.65 912.35 1282.44 900.06
  Z"
/>
<path fill="#ef2f22" d="
  M 2177.55 882.84
  C 2178.24 880.28 2180.24 868.84 2174.68 868.74
  C 2162.92 868.53 2151.13 869.55 2139.35 869.26
  A 2.31 2.31 0.0 0 1 2137.09 866.87
  L 2137.75 847.60
  A 1.10 1.10 0.0 0 1 2138.83 846.54
  L 2236.91 845.34
  A 2.32 2.32 0.0 0 1 2239.25 847.66
  L 2239.25 916.98
  A 2.02 2.01 90.0 0 1 2237.24 919.00
  Q 2144.75 919.01 2051.75 918.99
  C 2023.43 918.98 1982.07 911.06 1974.67 877.98
  C 1974.21 875.89 1973.29 873.99 1973.09 871.94
  Q 1970.98 850.20 1973.51 830.00
  C 1977.28 799.93 2013.58 790.08 2038.03 787.26
  Q 2045.01 786.46 2058.00 786.50
  Q 2102.66 786.64 2147.31 786.02
  C 2176.84 785.61 2206.44 786.64 2235.57 786.47
  A 4.51 4.51 0.0 0 1 2240.09 790.70
  Q 2240.84 803.07 2241.08 816.75
  C 2241.11 818.73 2239.37 819.81 2237.46 819.93
  Q 2226.72 820.62 2215.96 820.38
  C 2161.71 819.20 2107.21 819.92 2052.95 820.82
  C 2040.90 821.02 2037.22 830.44 2036.55 841.08
  C 2035.92 851.33 2035.38 866.85 2039.99 874.66
  C 2042.98 879.70 2049.67 882.81 2055.39 882.76
  Q 2063.93 882.70 2079.31 883.16
  Q 2102.64 883.86 2176.84 883.39
  Q 2177.40 883.39 2177.55 882.84
  Z"
/>
<path fill="#ef2f22" d="
  M 962.76 894.42
  Q 962.39 894.17 962.63 893.78
  C 964.67 890.46 967.61 887.61 969.88 885.05
  Q 1013.40 835.96 1056.85 786.82
  Q 1057.13 786.50 1057.56 786.50
  L 1150.22 786.50
  A 1.82 1.81 -20.6 0 1 1151.58 787.11
  Q 1205.27 848.14 1258.49 908.76
  Q 1261.44 912.12 1264.58 916.31
  A 1.06 1.06 0.0 0 1 1263.73 918.00
  L 1194.80 918.00
  Q 1194.34 918.00 1193.99 917.70
  Q 1192.08 916.06 1190.61 914.22
  C 1184.19 906.15 1177.32 898.44 1170.82 890.43
  Q 1169.28 888.52 1167.50 886.84
  C 1166.08 885.49 1165.37 883.50 1163.75 882.14
  Q 1163.36 881.82 1162.85 881.81
  Q 1146.46 881.58 1136.44 881.88
  Q 1091.42 883.21 1046.38 882.60
  A 0.91 0.90 19.4 0 0 1045.68 882.93
  L 1017.46 918.42
  Q 1016.40 919.75 1014.85 919.06
  Q 995.42 910.36 975.31 900.72
  C 971.66 898.97 966.86 897.25 962.76 894.42
  Z
  M 1070.03 858.00
  L 1139.01 858.00
  A 1.16 1.15 -19.2 0 0 1139.92 856.13
  Q 1133.79 848.44 1127.83 841.18
  C 1121.81 833.84 1112.12 822.52 1101.95 817.98
  Q 1101.41 817.74 1100.95 818.10
  Q 1098.85 819.73 1096.67 822.42
  Q 1090.40 830.16 1075.81 847.55
  Q 1072.32 851.71 1068.88 855.30
  A 1.60 1.59 -68.1 0 0 1070.03 858.00
  Z"
/>
</svg>
