<svg xmlns="http://www.w3.org/2000/svg" viewBox="0 0 109.13 38.91">
    <path
        d="M313,436.06v3.25c0,.76.47,1.06,1.29,1.06h6.5v-1.06h-6.26c-.2,0-.27-.07-.27-.31v-2.63c0-.24.07-.31.27-.31h6.26V435h-6.5C313.42,435,313,435.3,313,436.06Z"
        transform="translate(-242.97 -401.46)" style="fill:#000"/>
    <path
        d="M259.82,436.08h-5.34c-.79,0-1.26.3-1.26,1.07v2.16c0,.76.47,1.06,1.26,1.06h5.34c.82,0,1.29-.3,1.29-1.06v-2.16C261.11,436.38,260.64,436.08,259.82,436.08Zm.12,3c0,.24-.07.31-.27.31h-5c-.2,0-.26-.07-.26-.31v-1.62c0-.24.06-.31.26-.31h5c.2,0,.27.07.27.31Z"
        transform="translate(-242.97 -401.46)" style="fill:#000"/>
    <path
        d="M309.06,435.43c-.24-.4-.35-.43-.93-.43h-1.37c-.51,0-.66,0-.9.41l-3,5h1.44l.63-1.06H310l.62,1.06h1.47Zm-3.56,2.88,1.27-2.14c.09-.16.12-.19.45-.19h.54c.23,0,.27,0,.37.19l1.26,2.14Z"
        transform="translate(-242.97 -401.46)" style="fill:#000"/>
    <path
        d="M336.26,436.06h6.32V435H336c-.82,0-1.29.3-1.29,1.06v3.25c0,.76.47,1.06,1.29,1.06h6.56v-3.23h-4.87v1h3.66v1.17h-5.11c-.21,0-.27-.07-.27-.31v-2.63C336,436.13,336.05,436.06,336.26,436.06Z"
        transform="translate(-242.97 -401.46)" style="fill:#000"/>
    <path
        d="M331.83,439.24c0,.1,0,.12-.18.12a.34.34,0,0,1-.34-.15l-3.6-3.91c-.22-.24-.3-.3-1-.3h-.89c-.39,0-.6.07-.6.56v4.81h1.22v-4.21c0-.1,0-.15.16-.15a.34.34,0,0,1,.35.15l3.6,3.91c.22.24.31.3,1,.3h.89c.39,0,.6-.07.6-.56V435h-1.22Z"
        transform="translate(-242.97 -401.46)" style="fill:#000"/>
    <rect x="79.45" y="33.53" width="1.26" height="5.38" style="fill:#000"/>
    <path
        d="M298.89,438.24h1.5c.82,0,1.29-.14,1.29-.9v-1.28c0-.76-.47-1.06-1.29-1.06h-6.56v5.37h1.26v-4.31h5.06c.21,0,.27.07.27.31v.7c0,.24-.06.31-.27.31h-2.53c-.27,0-.33.09-.33.31v.4c0,.23.06.31.38.54l2.58,1.74h2.05Z"
        transform="translate(-242.97 -401.46)" style="fill:#000"/>
    <path
        d="M288.31,436.08h-5.78v1h5.67c.2,0,.27.07.27.31v.38h-5.54c-.82,0-1.3.21-1.3.94v.65c0,.74.48,1,1.3,1h6.67v-3.22C289.6,436.38,289.13,436.08,288.31,436.08Zm.16,3.35H283c-.2,0-.26-.07-.26-.3V439c0-.22.06-.3.26-.3h5.43Z"
        transform="translate(-242.97 -401.46)" style="fill:#000"/>
    <path
        d="M278.84,434.42v1.66h-5.42c-.79,0-1.26.3-1.26,1.07v2.16c0,.76.47,1.06,1.26,1.06H280v-5.95Zm0,4.93h-5.23c-.21,0-.27-.07-.27-.31v-1.62c0-.24.06-.31.27-.31h5.23Z"
        transform="translate(-242.97 -401.46)" style="fill:#000"/>
    <path
        d="M269.25,436.08h-6.52v4.29h1.18v-3.26h5.19c.2,0,.27.07.27.31v2.95h1.17v-3.22C270.54,436.38,270.07,436.08,269.25,436.08Z"
        transform="translate(-242.97 -401.46)" style="fill:#000"/>
    <polygon
        points="7.37 35.64 2.08 35.64 2.08 33.53 0.81 33.53 0.81 38.91 2.08 38.91 2.08 36.63 7.37 36.63 7.37 38.91 8.63 38.91 8.63 33.53 7.37 33.53 7.37 35.64"
        style="fill:#000"/>
    <path
        d="M294.68,412H297c.07,0,.12,0,.15.06a.13.13,0,0,1-.06.17c-.13.1-1.54,1-1.7,1.12-1.22.78-2.34,1.52-3.63,2.39,0,0-.43.29-.83.6a10.92,10.92,0,0,0-.91.82,8.69,8.69,0,0,0-1.17,1.42l1.86-6.58Zm37-10.5a21.74,21.74,0,0,0-9,1.59,23.69,23.69,0,0,0-7.19,4.83,22.34,22.34,0,0,0-3.57,4.51l-.17.31c0-.06,0-.11,0-.25a9.25,9.25,0,0,0-.09-3.74,9.43,9.43,0,0,0-2.09-4.07,8.93,8.93,0,0,0-3.73-2.6,13.68,13.68,0,0,0-4.32-.55H279l-3.12,10.27h-12l2.95-10.27H252L243,433.12h14.79L261,422.24h11.91l-3.11,10.88h14.78l2.69-9.32a8.59,8.59,0,0,0,1.92,5.63,9,9,0,0,0,5.18,3.28,24.49,24.49,0,0,0,5.37.42H343l2.92-10.5H330.6a9.75,9.75,0,0,1-4.68-.78A3.6,3.6,0,0,1,324.4,418a6,6,0,0,1,.76-2,8,8,0,0,1,3.12-3.06c1.87-1,4.06-1,6.18-1H349l3.16-10.47Zm-29.38,21a.13.13,0,0,1-.14-.09.18.18,0,0,1,.09-.14l5.28-3.49.65-.46a9.32,9.32,0,0,0,1-.78,8.08,8.08,0,0,0,.77-.84.7.7,0,0,0,.1-.13s0,.19-.25,1a14.46,14.46,0,0,0-.42,5Z"
        transform="translate(-242.97 -401.46)" style="fill:#FFFFFF"/>
    <path
        d="M291,417.82a8.06,8.06,0,0,0-.76,10.76,7.78,7.78,0,0,0,4.54,2.86,33.8,33.8,0,0,0,7,.39h40.39l2.24-8.06H331.49c-2,0-4.46.09-6.2-.91a4.5,4.5,0,0,1-2.07-5H311a13.23,13.23,0,0,0-.2,5.84h-8.5c-1,0-1.43-.45-1.53-1a1.12,1.12,0,0,1,.54-1.1l.87-.6c.7-.45,4.72-3.11,4.72-3.11Z"
        transform="translate(-242.97 -401.46)" style="fill:#212c56"/>
    <polygon
        points="1.62 30.37 13.88 30.37 17.13 19.62 31.56 19.62 28.48 30.37 40.74 30.37 44.76 16.35 5.64 16.35 1.62 30.37"
        style="fill:#212c56"/>
    <path
        d="M311.29,416.65h12.27a9.24,9.24,0,0,1,4.11-4.65c2.1-1.16,4.41-1.18,6.74-1.18H348l2.47-8.17-18.79,0a21.2,21.2,0,0,0-8.52,1.49,22.75,22.75,0,0,0-6.84,4.6A19.89,19.89,0,0,0,311.29,416.65Z"
        transform="translate(-242.97 -401.46)" style="fill:#cc1517"/>
    <path
        d="M292.42,416.65h15.92a8.2,8.2,0,0,0,2.25-7.68,8.39,8.39,0,0,0-1.84-3.58,7.88,7.88,0,0,0-3.24-2.26,13.52,13.52,0,0,0-4.25-.48H279.89l-3.13,10.27H262.29l2.94-10.27H253l-4,14h39.12l1.67-5.84c.93,0,7.19,0,7.5,0a1.64,1.64,0,0,1,.75.16,1.21,1.21,0,0,1,.43,1.4,2.34,2.34,0,0,1-.95,1c-.47.32-1,.62-1.45.93C294.81,415.05,293.7,415.78,292.42,416.65Z"
        transform="translate(-242.97 -401.46)" style="fill:#cc1517"/>
</svg>
